<svg width="50" height="34" viewBox="0 0 50 34" fill="none" xmlns="http://www.w3.org/2000/svg">
<path d="M19.2625 33.112C18.4818 33.8932 17.2157 33.8936 16.4344 33.1131L0.402224 17.0963C0.128184 16.7763 -0.0150135 16.3646 0.00124751 15.9436C0.0175086 15.5227 0.19203 15.1233 0.489938 14.8254C0.787845 14.5275 1.1872 14.353 1.60819 14.3367C2.02918 14.3204 2.4408 14.4636 2.7608 14.7377L16.4021 28.379C17.1829 29.1598 18.4486 29.1601 19.2298 28.3798L47.2392 0.402224C47.5592 0.128184 47.9708 -0.0150135 48.3918 0.00124751C48.8128 0.0175086 49.2122 0.19203 49.5101 0.489938C49.808 0.787845 49.9825 1.1872 49.9988 1.60819C50.015 2.02918 49.8718 2.4408 49.5978 2.7608L19.2625 33.112Z" fill="#3F71D3"/>
</svg>
