<svg width="50" height="13" viewBox="0 0 50 13" fill="none" xmlns="http://www.w3.org/2000/svg">
<path d="M9.072 0.768V2.96H6.096V12H3.36V2.96H0.384V0.768H9.072ZM15.7571 12.112C14.7011 12.112 13.7305 11.8667 12.8451 11.376C11.9705 10.8853 11.2718 10.2027 10.7491 9.328C10.2371 8.44267 9.98112 7.45067 9.98112 6.352C9.98112 5.25333 10.2371 4.26667 10.7491 3.392C11.2718 2.51733 11.9705 1.83467 12.8451 1.344C13.7305 0.853333 14.7011 0.608 15.7571 0.608C16.8131 0.608 17.7785 0.853333 18.6531 1.344C19.5385 1.83467 20.2318 2.51733 20.7331 3.392C21.2451 4.26667 21.5011 5.25333 21.5011 6.352C21.5011 7.45067 21.2451 8.44267 20.7331 9.328C20.2211 10.2027 19.5278 10.8853 18.6531 11.376C17.7785 11.8667 16.8131 12.112 15.7571 12.112ZM15.7571 9.616C16.6531 9.616 17.3678 9.31733 17.9011 8.72C18.4451 8.12267 18.7171 7.33333 18.7171 6.352C18.7171 5.36 18.4451 4.57067 17.9011 3.984C17.3678 3.38667 16.6531 3.088 15.7571 3.088C14.8505 3.088 14.1251 3.38133 13.5811 3.968C13.0478 4.55467 12.7811 5.34933 12.7811 6.352C12.7811 7.344 13.0478 8.13867 13.5811 8.736C14.1251 9.32267 14.8505 9.616 15.7571 9.616ZM30.6219 0.768C31.8059 0.768 32.8405 1.00267 33.7259 1.472C34.6112 1.94133 35.2939 2.60267 35.7739 3.456C36.2645 4.29867 36.5099 5.27467 36.5099 6.384C36.5099 7.48267 36.2645 8.45867 35.7739 9.312C35.2939 10.1653 34.6059 10.8267 33.7099 11.296C32.8245 11.7653 31.7952 12 30.6219 12H26.4139V0.768H30.6219ZM30.4459 9.632C31.4805 9.632 32.2859 9.34933 32.8619 8.784C33.4379 8.21867 33.7259 7.41867 33.7259 6.384C33.7259 5.34933 33.4379 4.544 32.8619 3.968C32.2859 3.392 31.4805 3.104 30.4459 3.104H29.1499V9.632H30.4459ZM43.3509 12.112C42.2949 12.112 41.3242 11.8667 40.4389 11.376C39.5642 10.8853 38.8655 10.2027 38.3429 9.328C37.8309 8.44267 37.5749 7.45067 37.5749 6.352C37.5749 5.25333 37.8309 4.26667 38.3429 3.392C38.8655 2.51733 39.5642 1.83467 40.4389 1.344C41.3242 0.853333 42.2949 0.608 43.3509 0.608C44.4069 0.608 45.3722 0.853333 46.2469 1.344C47.1322 1.83467 47.8255 2.51733 48.3269 3.392C48.8389 4.26667 49.0949 5.25333 49.0949 6.352C49.0949 7.45067 48.8389 8.44267 48.3269 9.328C47.8149 10.2027 47.1215 10.8853 46.2469 11.376C45.3722 11.8667 44.4069 12.112 43.3509 12.112ZM43.3509 9.616C44.2469 9.616 44.9615 9.31733 45.4949 8.72C46.0389 8.12267 46.3109 7.33333 46.3109 6.352C46.3109 5.36 46.0389 4.57067 45.4949 3.984C44.9615 3.38667 44.2469 3.088 43.3509 3.088C42.4442 3.088 41.7189 3.38133 41.1749 3.968C40.6415 4.55467 40.3749 5.34933 40.3749 6.352C40.3749 7.344 40.6415 8.13867 41.1749 8.736C41.7189 9.32267 42.4442 9.616 43.3509 9.616Z" fill="white"/>
</svg>
